<svg height="512" viewBox="0 0 64 64" width="512" xmlns="http://www.w3.org/2000/svg"><g id="Flat"><g id="Color_copy" data-name="Color copy"><path d="m22 33h20a8 8 0 0 1 8 8v20a0 0 0 0 1 0 0h-36a0 0 0 0 1 0 0v-20a8 8 0 0 1 8-8z" fill="#00b4d8"/><g fill="#0096c7"><path d="m50 55v6h-36v-20a8 8 0 0 1 7-7.94v6.94a15.005 15.005 0 0 0 15 15z"/><path d="m41 33-6 11-3-6 5-4v-1z"/><path d="m23 33 2 11 7-6-5-4v-1z"/><path d="m33 39v-1h-6v1a3 3 0 0 0 1.754 2.722l-1.754 12.278 3 5 3-5-1.754-12.278a3 3 0 0 0 1.754-2.722z"/></g><path d="m29 3h6a10 10 0 0 1 10 10 8 8 0 0 1 -8 8h-10a8 8 0 0 1 -8-8 10 10 0 0 1 10-10z" fill="#00b4d8"/><path d="m44.82 14.7a7.991 7.991 0 0 1 -7.82 6.3h-10a8 8 0 0 1 -8-8 9.969 9.969 0 0 1 2.93-7.07 10.086 10.086 0 0 1 3.52-2.28 4.233 4.233 0 0 0 3.79 2.35 4.246 4.246 0 0 1 3 1.24l.99.99a6.055 6.055 0 0 0 4.28 1.77h.06a6.051 6.051 0 0 1 5.19 2.94 4.3 4.3 0 0 0 2.06 1.76z" fill="#0096c7"/><path d="m37 34-5 4-5-4v-5h10z" fill="#fdc741"/><path d="m37 31.13a9.926 9.926 0 0 1 -4.83 2.63 9.944 9.944 0 0 0 3.67 1.17l-3.84 3.07-5-4v-5h10z" fill="#efad1b"/><path d="m32 32a10 10 0 0 1 -10-10v-6a6.919 6.919 0 0 1 5.94-6.849l1.06-.151a10.3 10.3 0 0 0 8.831 5h4.169v8a10 10 0 0 1 -10 10z" fill="#fcea42"/><path d="m25 13v6a10 10 0 0 0 10 10 9.807 9.807 0 0 0 5.41-1.61 9.992 9.992 0 0 1 -18.41-5.39v-6a6.89 6.89 0 0 1 1.69-4.53 6.964 6.964 0 0 1 4.25-2.32l1.06-.15a10.224 10.224 0 0 0 3.76 3.66 10.292 10.292 0 0 0 5.07 1.34h4.17v2h-4.17a10.3 10.3 0 0 1 -8.83-5l-1.06.15a6.926 6.926 0 0 0 -2.9 1.12c-.02.24-.04.48-.04.73z" fill="#fdc741"/><path d="m35 54-3 5-3-5 2-14h2z" fill="#ef5350"/><path d="m34.24 55.27-2.24 3.73-3-5 2-14h2l.38 2.66a3.3 3.3 0 0 1 -.95.3l-1.29 9.03a2.921 2.921 0 0 0 .39 1.89 2.859 2.859 0 0 0 2.71 1.39z" fill="#e53935"/><path d="m29 38h6a0 0 0 0 1 0 0v1a3 3 0 0 1 -3 3 3 3 0 0 1 -3-3v-1a0 0 0 0 1 0 0z" fill="#ff7373"/><path d="m35 38v1a3 3 0 0 1 -6 0v-1h3l-.92 2.29a2.967 2.967 0 0 0 1.92.71 2.607 2.607 0 0 0 .48-.05l-1.48-2.95z" fill="#ef5350"/><path d="m41 33-4 9-5-4 5-4v-1z" fill="#48cae4"/><path d="m23 33 4 9 5-4-5-4v-1z" fill="#48cae4"/><path d="m30 20a1 1 0 0 1 -.707-.293 1.831 1.831 0 0 0 -2.586 0 1 1 0 0 1 -1.414-1.414 3.832 3.832 0 0 1 5.414 0 1 1 0 0 1 -.707 1.707z" fill="#00b4d8"/><path d="m38 20a1 1 0 0 1 -.707-.293 1.831 1.831 0 0 0 -2.586 0 1 1 0 0 1 -1.414-1.414 3.832 3.832 0 0 1 5.414 0 1 1 0 0 1 -.707 1.707z" fill="#00b4d8"/><path d="m55 49a1 1 0 0 1 -1-1v-2a1 1 0 0 0 -1-1h-6a1 1 0 0 0 -1 1v2a1 1 0 0 1 -2 0v-2a3 3 0 0 1 3-3h6a3 3 0 0 1 3 3v2a1 1 0 0 1 -1 1z" fill="#fdc741"/><path d="m39 47h22v14h-22z" fill="#fcea42"/><path d="m61 58v3h-22v-14h4v7a4 4 0 0 0 4 4z" fill="#fdc741"/><path d="m58 55h-16l-3-8h22z" fill="#fdc741"/><path d="m48 52h4v4h-4z" fill="#fdc741"/><path d="m58 53h-16l-3-6h22z" fill="#fffa48"/><path d="m59 51-1 2h-16l-3-6h4a4 4 0 0 0 4 4z" fill="#fcea42"/><path d="m48 51h4v4h-4z" fill="#48cae4"/><path d="m52 54v1h-4v-4h1a3 3 0 0 0 3 3z" fill="#00b4d8"/><path d="m10 11-6 7h3v13h6v-13h3z" fill="#ef5350"/><path d="m8 38-5 7h3v9h4v-9h3z" fill="#ef5350"/><path d="m55 17-6 7h3v11h6v-11h3z" fill="#ef5350"/><path d="m13 28v3h-6v-13h-3l6-7v14a3 3 0 0 0 3 3z" fill="#e53935"/><path d="m10 51.82v2.18h-4v-9h-3l5-7v11a2.968 2.968 0 0 0 2 2.82z" fill="#e53935"/><path d="m58 32v3h-6v-11h-3l6-7v12a3 3 0 0 0 3 3z" fill="#e53935"/></g></g></svg>