<svg height="512" viewBox="0 0 64 64" width="512" xmlns="http://www.w3.org/2000/svg"><g id="Flat"><g id="Color_copy" data-name="Color copy"><path d="m3 61 4-8h11l3-3h14l5-12h12l9-9v32z" fill="#edb88e"/><path d="m3 61 6-5 10 3 5-6 15-1 4-10 9 1 9-3v21z" fill="#da9367"/><path d="m19.484 35.222h-8l1 6-4.172 4 2.172 3 6-4 1-5 5 2 1 4.778 4 1-1-8.778z" fill="#00b4d8"/><path d="m27.48 47-4-1-1-4.78-5-2-2.08 3.17a2.721 2.721 0 0 1 -1.05.94 2.693 2.693 0 0 0 -1.37 3.22l-2.5 1.67-2.17-3 4.17-4-1-6h8l1.52.65v.22a3.077 3.077 0 0 0 1.71 2.76l.58.3a3.077 3.077 0 0 1 1.71 2.76 3.092 3.092 0 0 0 .9 2.19 3.027 3.027 0 0 0 1.34.78z" fill="#0096c7"/><path d="m15.484 25.222a3 3 0 0 1 -3-3v-3h6v3a3 3 0 0 1 -3 3z" fill="#f9dbaf"/><path d="m15.484 15.222a3 3 0 0 0 -3 3v1h6v-1a3 3 0 0 0 -3-3z" fill="#00b4d8"/><path d="m27.942 21.194a1.853 1.853 0 0 0 -2.51.43l-1.948 2.6-4 1h-8l-6 1-2.374 6.328a1.719 1.719 0 0 0 1.066 2.234 1.719 1.719 0 0 0 2.017-.746l2.291-3.818h3v5h8v-5.286l6-1.714 2.972-4.458a1.854 1.854 0 0 0 -.514-2.57z" fill="#48cae4"/><path d="m10.434 53-4.95-4.95 2.828-2.828 2.122 2.121a4 4 0 0 1 0 5.657z" fill="#fcea42"/><path d="m30.484 50h-7v-4h3a4 4 0 0 1 4 4z" fill="#fcea42"/><path d="m18.48 20.25-4.48.75a3 3 0 0 0 3 3 2.681 2.681 0 0 0 1.02-.19 3 3 0 0 1 -5.54-1.59v-3h6z" fill="#edb88e"/><path d="m30.48 50h-7v-4h1.52a2.006 2.006 0 0 0 2 2h2.94a3.989 3.989 0 0 1 .54 2z" fill="#fdc741"/><path d="m11.25 51.82a3.749 3.749 0 0 1 -.82 1.18l-4.95-4.95 2.83-2.83 1.03 1.03a2.967 2.967 0 0 0 .27 3.92z" fill="#fdc741"/><path d="m28.46 23.76-2.98 4.46-6 1.72v5.28h-8v-5h-3l-2.29 3.82a1.7 1.7 0 0 1 -2.01.75 1.726 1.726 0 0 1 -1.07-2.24l1.378-3.681.992-2.649 6-1h5.53a2.944 2.944 0 0 1 -3.01.6v3.18a4 4 0 0 0 4 4v-2.46a3 3 0 0 1 2.51-2.96l.8-.13a6.783 6.783 0 0 0 5.68-6.56 1.669 1.669 0 0 1 .95.3 1.864 1.864 0 0 1 .52 2.57z" fill="#00b4d8"/><path d="m18.48 18.22v1h-6v-1a2.98 2.98 0 0 1 1.58-2.64 2.986 2.986 0 0 0 2.94 2.42h1.47a1.62 1.62 0 0 1 .01.22z" fill="#0096c7"/><path d="m61 48-7-3-9 3-4 6-13 1-5 6h38z" fill="#f9dbaf"/><path d="m61 25v-6h-3.362a12.9 12.9 0 0 0 -1.582-3.814l2.379-2.378-4.243-4.243-2.378 2.379a12.911 12.911 0 0 0 -3.814-1.582v-3.362h-6v3.362a12.911 12.911 0 0 0 -3.814 1.582l-2.378-2.379-4.243 4.243 2.379 2.378a12.9 12.9 0 0 0 -1.582 3.814h-3.362v6h3.362a12.9 12.9 0 0 0 1.582 3.814l-2.379 2.378 4.243 4.243 2.378-2.379a12.9 12.9 0 0 0 3.814 1.582v3.362h6v-3.362a12.9 12.9 0 0 0 3.814-1.582l2.378 2.379 4.243-4.243-2.379-2.378a12.9 12.9 0 0 0 1.582-3.814zm-16 4a7 7 0 1 1 7-7 7 7 0 0 1 -7 7z" fill="#e9f1f2"/><path d="m58.01 30.76a18.963 18.963 0 0 1 -11.72-1.88 6.8 6.8 0 0 1 -1.29.12 7 7 0 0 1 -7-7 6.8 6.8 0 0 1 .12-1.29 18.963 18.963 0 0 1 -1.88-11.72l-.43-.43-4.25 4.25 2.38 2.38a13.223 13.223 0 0 0 -1.58 3.81h-3.36v6h3.36a13.223 13.223 0 0 0 1.58 3.81l-2.38 2.38 4.25 4.24 2.38-2.37a13.223 13.223 0 0 0 3.81 1.58v3.36h6v-3.36a13.223 13.223 0 0 0 3.81-1.58l2.38 2.37 4.25-4.24z" fill="#d0d8da"/><path d="m55 22a10 10 0 1 0 -10 10 10 10 0 0 0 10-10zm-10 7a7 7 0 1 1 7-7 7 7 0 0 1 -7 7z" fill="#b8bebf"/><path d="m46.29 28.88a6.8 6.8 0 0 1 -1.29.12 7 7 0 0 1 -7-7 6.8 6.8 0 0 1 .12-1.29 18.572 18.572 0 0 1 -1.55-4.08 9.856 9.856 0 0 0 -1.57 5.37 10 10 0 0 0 10 10 9.856 9.856 0 0 0 5.37-1.57 18.572 18.572 0 0 1 -4.08-1.55z" fill="#93999a"/><path d="m61 50-6 1-8-1-5 8-13-1-6 4h38z" fill="#edb88e"/></g></g></svg>