<svg id="Capa_1" enable-background="new 0 0 497.943 497.943" height="512" viewBox="0 0 497.943 497.943" width="512" xmlns="http://www.w3.org/2000/svg"><g><path d="m464.311 364.667-39.147-16.022h-15.657l-38.369 16.023c-3.949 1.652-7.568 3.868-10.797 6.53l-24.91 21.522 3.543 25.095 13.475.827 14.267 11.554 118.859.032c3.375 0 6.111-2.736 6.111-6.112v-17.228c-.001-18.584-10.839-35.3-27.375-42.221z" fill="#b3e5ee"/><path d="m425.164 348.645h-15.657l-4.82 2.013-33.549 14.01c-3.949 1.652-7.568 3.868-10.797 6.53l-24.91 21.522 1.261 8.933 2.282 16.162 4.788.294 8.687.533 5.589 6.966 5.42 4.62h12.988c1.647-3.438 2.571-7.284 2.571-11.343v-31.52c0-1.854-.078-3.697-.229-5.527-.336-4.073 2.017-7.89 5.789-9.465l7.398-3.089c2.212-.924 4.795-.45 6.454 1.28 4.872 5.078 11.719 8.245 19.296 8.245 13.272 0 24.314-9.712 26.405-22.401z" fill="#86d7e5"/><path d="m434.49 352.042c0 9.26-7.506 16.766-16.766 16.766s-16.766-7.506-16.766-16.766v-48.634h33.532z" fill="#ffd1c2"/><path d="m453.237 322.228 1.349.207c29.231 4.489 51.957-24.977 40.191-52.109l-11.277-26.001c-1.113-2.567-1.879-5.27-2.277-8.039-4.494-31.231-31.253-54.416-62.806-54.416-31.553 0-58.312 23.185-62.806 54.416-.398 2.769-1.164 5.473-2.277 8.039l-11.276 26.002c-11.767 27.132 10.96 56.597 40.191 52.109l1.349-.207 23.533-9.229h20.458z" fill="#a59ca6"/><path d="m280.625 332.155h-63.685v-105.092h65.053z" fill="#ffd1c2"/><path d="m159.701 378.797-19.577-15.051c-4.186-3.117-8.873-5.655-13.973-7.461l-27.204-9.635-12.363-3.82h-14.091l-9.93 3.82-27.204 9.635c-21.194 7.507-35.359 27.551-35.359 50.035v17.281c0 3.66 2.967 6.626 6.626 6.626h126.923c.003-.005 16.706-33.049 26.152-51.43z" fill="#b3e5ee"/><path d="m301.7 316.686 37.175 24.629c15.739 10.427 25.141 27.649 25.141 46.051v42.862h-230.467v-42.862c0-18.401 9.402-35.623 25.141-46.051l37.175-24.629 21.075-13.246 36.213 15.333s27.782-14.553 28.861-15.333c1.079-.779 19.686 13.246 19.686 13.246z" fill="#f9f7f7"/><path d="m297.623 100.54-4.64-.69-44.2-4.305s-5.788 95.255-4.748 95.255 28.028 19.11 28.028 19.11h54.01l2.54-21.93 5.44-38.68c3.31-23.5-12.96-45.27-36.43-48.76z" fill="#a59ca6"/><g id="XMLID_2_"><g><path d="m311.343 151.185.147-.457c4.866-15.106 4.769-30.934-.047-45.671-4.212-2.227-8.844-3.778-13.821-4.518l-4.64-.69-44.2-4.305s-5.788 95.255-4.748 95.255 28.028 19.11 28.028 19.11h16.124z" fill="#8f8390"/><path d="m292.983 99.85c7.37 13.69 9.39 30.26 4.23 46.28l-25.15 63.78h-93.06l-8.6-23.73c-4.77-11.58-7.13-23.81-7.13-36 0-17.39 4.8-34.69 14.23-49.86 16.25-26.15 47.85-38.38 77.47-29.98l1.96.56c16.11 4.56 28.72 15.33 36.05 28.95z" fill="#a59ca6"/></g></g><path d="m315.857 223.044c10.18 0 18.433-8.253 18.433-18.433 0-10.18-8.253-18.433-18.433-18.433h-39.99v36.867h39.99z" fill="#ffd1c2"/><path d="m181.709 223.044c-10.18 0-18.433-8.253-18.433-18.433 0-10.18 8.253-18.433 18.433-18.433h39.99v36.867h-39.99z" fill="#ffd1c2"/><path d="m141.881 266.665 1.63-19.29c3.506-42.998-39.828-74.399-79.596-57.678l-15.604 6.561c-19.731 4.008-32.935 22.679-30.138 42.618l3.871 27.598 3.756 18.747s113.091 1.19 113.091 0c-.001-1.19 2.99-18.556 2.99-18.556z" fill="#a59ca6"/><path d="m98.948 346.65-12.363-3.82h-14.092l-6.963 2.678-2.967 1.142-27.204 9.635c-21.194 7.507-35.359 27.551-35.359 50.035v17.281c0 3.66 2.967 6.626 6.626 6.626h12.47v-17.11c0-22.482 14.164-42.526 35.356-50.034l.074-.026c1.555-.551 3.257-.013 4.294 1.271 5.17 6.407 13.08 10.513 21.935 10.513 14.372 0 26.258-10.812 27.972-24.728z" fill="#86d7e5"/><g fill="#ffd1c2"><path d="m98.948 346.65c0 10.047-8.145 18.192-18.192 18.192-10.047 0-18.192-8.145-18.192-18.192v-50.466h36.385v50.466z"/><path d="m131.513 295.688c9.038 0 16.364-7.326 16.364-16.364 0-9.038-7.326-16.364-16.364-16.364h-35.999v32.925z"/><path d="m32.156 295.688c-9.038 0-16.364-7.326-16.364-16.364 0-9.038 7.326-16.364 16.364-16.364h33.374v32.728z"/></g><path d="m248.783 279.324c32.955 0 59.67-26.715 59.67-59.67v-41.581c0-14.871-6.488-29.003-17.765-38.697l-8.179-7.03c-1.9-1.633-4.695-1.676-6.644-.102l-8.73 7.051h-40.72c-20.601 0-37.301 16.7-37.301 37.301v43.058c-.001 32.955 26.714 59.67 59.669 59.67z" fill="#ffe0d1"/><path d="m225.107 158.793h52.856c3.605 0 7.117-1.141 10.033-3.26l8.034-5.837c.874-.635 1.887-1.051 2.921-1.279-2.359-3.304-5.126-6.344-8.263-9.041l-8.179-7.03c-1.9-1.633-4.695-1.676-6.645-.102l-8.73 7.051h-40.72c-18.693 0-34.172 13.728-36.879 31.665 9.453-7.578 21.911-12.167 35.572-12.167z" fill="#ffd1c2"/><path d="m256.283 430.227v-110.87c0-.719-.107-1.412-.296-2.071-1.743.915-2.834 1.486-2.834 1.486l-10.082-4.269c-1.113 1.309-1.788 3.001-1.788 4.854v110.87z" fill="#f2eae7"/><path d="m301.7 316.686s-18.607-14.025-19.686-13.246-28.861 15.333-28.861 15.333l-36.213-15.333-14.354 9.021-6.721 4.224-37.175 24.629c-15.739 10.427-25.141 27.649-25.141 46.05v42.862h23.84v-31.767c0-18.401 9.402-35.624 25.141-46.051l8.251-5.466c3.23-2.14 7.568-1.387 9.888 1.715 3.458 4.623 8.494 7.924 14.189 8.872 3.358.559 6.755.332 9.977-.647l23.948-7.288 23.951 7.289c2.063.627 4.202.945 6.357.945h.001c6.853 0 13.396-3.276 17.501-8.765l17.119-22.889c.258-.345.481-.704.715-1.06z" fill="#f2eae7"/><path d="m216.94 296.525 31.843 15.614v21.777l-28.315 8.617c-2.762.84-5.754-.14-7.483-2.452l-17.12-22.89c-1.985-2.654-1.562-6.393.964-8.537l13.292-11.279c1.902-1.614 4.579-1.948 6.819-.85z" fill="#f9f7f7"/><path d="m280.625 296.525-31.843 15.614v21.777l28.315 8.617c2.762.84 5.754-.14 7.483-2.452l17.12-22.89c1.985-2.654 1.562-6.393-.964-8.537l-13.292-11.279c-1.902-1.614-4.579-1.948-6.819-.85z" fill="#f9f7f7"/><path d="m183.694 430.227v-39.498c0-4.143-3.358-7.5-7.5-7.5s-7.5 3.357-7.5 7.5v39.498z" fill="#f2eae7"/><path d="m328.871 430.227v-39.498c0-4.143-3.358-7.5-7.5-7.5s-7.5 3.357-7.5 7.5v39.498z" fill="#f2eae7"/><path d="m459.878 249.932v47.805c0 22.898-18.563 41.461-41.461 41.461-22.898 0-41.461-18.563-41.461-41.461v-35.979c0-11.069 3.769-21.808 10.686-30.45 1.203-1.503 3.401-1.738 4.895-.523l1.935 1.574c8.709 7.086 19.519 11.089 30.743 11.385l29.391.775c2.934.078 5.272 2.478 5.272 5.413z" fill="#ffe0d1"/><path d="m382.198 242.067 2.465 1.574c11.092 7.086 24.858 11.089 39.152 11.385l36.064.747v-5.841c0-2.935-2.338-5.336-5.272-5.413l-29.391-.775c-11.224-.296-22.034-4.299-30.743-11.385l-1.935-1.575c-1.494-1.215-3.692-.98-4.895.523-2.551 3.186-4.669 6.659-6.333 10.328.309.117.609.255.888.432z" fill="#ffd1c2"/><path d="m50.047 236.741c-4.994 6.897-7.683 15.195-7.683 23.71v35.005c0 21.799 17.671 39.47 39.47 39.47 21.799 0 39.47-17.671 39.47-39.47v-38.711c0-2.83-2.294-5.123-5.123-5.123h-18.52c-14.917 0-29.424-4.879-41.309-13.893l-2.122-1.609c-1.321-1.004-3.21-.723-4.183.621z" fill="#ffe0d1"/><path d="m44.838 247.837c16.33 12.385 36.263 19.089 56.759 19.089h19.708v-10.181c0-2.83-2.294-5.124-5.123-5.124h-18.52c-14.917 0-29.424-4.879-41.309-13.893l-2.122-1.609c-1.322-1.003-3.21-.722-4.184.622-2.408 3.326-4.274 6.979-5.567 10.824z" fill="#ffd1c2"/></g></svg>