<svg id="_x33_0" enable-background="new 0 0 62 62" height="512" viewBox="0 0 62 62" width="512" xmlns="http://www.w3.org/2000/svg"><g><g><g><path d="m51 57h5l-.62 2.49c-.22.89-1.02 1.51-1.94 1.51h-10.44-1c-.55 0-1-.45-1-1v-2c0-.55.45-1 1-1h1 6z" fill="#aab2bd"/></g><g><path d="m59 44.78c0 .15-.02.29-.05.43l-2.95 11.79h-5l3.63-12.71c.22-.76.92-1.29 1.71-1.29h.88c.98 0 1.78.8 1.78 1.78z" fill="#ccd1d9"/></g><g><path d="m45 17c.08.15.16.3.25.45l-.28.17-.97-1.62-2 1-3-4-3 3-4-5-4 5-3-3-3 4-2-1-.6 1h-12.4c-2.21 0-4-1.79-4-4v-4c0-2.21 1.79-4 4-4h38z" fill="#ccd1d9"/></g><g><path d="m60.59 3.59c.26.26.41.62.41 1 0 .78-.63 1.41-1.41 1.41h-4.59c-1.1 0-2 .9-2 2v6c0 1.1.9 2 2 2h4.59c.78 0 1.41.63 1.41 1.41 0 .38-.15.74-.41 1l-.47.47c-1.36 1.36-3.2 2.12-5.12 2.12h-3.53c-1.37 0-2.68-.39-3.8-1.08-.42-.26-.82-.56-2.42-2.47-.09-.15-.17-.3-.25-.45v-12c1.23-2.45 3.73-4 6.47-4h2.87c1.17 0 2.32.23 3.38.67s2.04 1.09 2.87 1.92z" fill="#ccd1d9"/></g><g><path d="m17.81 29.01c.03.09.06.18.1.27l.81 2.01c-1.02.48-1.72 1.51-1.72 2.71 0 .83.34 1.58.88 2.12s1.29.88 2.12.88h1.05c.24 2.7 1.46 5.12 3.3 6.9-1.62 4.72-6.09 8.1-11.35 8.1-6.63 0-12-5.37-12-12s5.37-12 12-12c1.71 0 3.34.36 4.81 1.01z" fill="#69d6f4"/></g><g><path d="m43 27h-5.93c-3.24 0-6.39-.92-9.09-2.62l-5.03 1.89c-1.17.44-1.95 1.56-1.95 2.81v1.92h-1c-.46 0-.89.1-1.28.29l-.81-2.01c-.04-.09-.07-.18-.1-.27-.54-1.42-.81-2.95-.81-4.47 0-2.32.63-4.59 1.82-6.57l.58-.97.6-1 2 1 3-4 3 3 4-5 4 5 3-3 3 4 2-1 .97 1.62.21.35c1.19 1.98 1.82 4.25 1.82 6.57 0 1.62-.31 3.24-.91 4.74l-.81 2.01c-.39-.19-.82-.29-1.28-.29h-1z" fill="#b27946"/></g><g><path d="m38.67 61h-9.67v-9.67c0 5.34 4.33 9.67 9.67 9.67z" fill="#fcd770"/></g><g><path d="m41 58v2c0 .55.45 1 1 1h-3-.33c-5.34 0-9.67-4.33-9.67-9.67 0-1.19.48-2.28 1.27-3.06.78-.79 1.87-1.27 3.06-1.27.81 0 1.6.23 2.27.65.67.41 1.23 1.01 1.6 1.74l1.8 3.61h4v4h-1c-.55 0-1 .45-1 1z" fill="#fcd770"/></g><g><path d="m49 57h-6v-4h2c2.21 0 4 1.79 4 4z" fill="#f0d0b4"/></g><g><path d="m45.28 31.29c1.02.48 1.72 1.51 1.72 2.71 0 .83-.34 1.58-.88 2.12s-1.29.88-2.12.88h-1.05c.03-.33.05-.66.05-1v-5h1c.46 0 .89.1 1.28.29z" fill="#f0d0b4"/></g><g><path d="m43 31v5c0 .34-.02.67-.05 1-.23 2.64-1.4 5.01-3.17 6.78-1.99 1.99-4.74 3.22-7.78 3.22-2.98 0-5.67-1.18-7.65-3.1-1.84-1.78-3.06-4.2-3.3-6.9-.03-.33-.05-.66-.05-1v-5-1.92c0-1.25.78-2.37 1.95-2.81l5.03-1.89c2.7 1.7 5.85 2.62 9.09 2.62h5.93z" fill="#f0d0b4"/></g><g><path d="m21.05 37h-1.05c-.83 0-1.58-.34-2.12-.88s-.88-1.29-.88-2.12c0-1.2.7-2.23 1.72-2.71.39-.19.82-.29 1.28-.29h1v5c0 .34.02.67.05 1z" fill="#f0d0b4"/></g></g><g><path d="m30 34v-1c0-1.654-1.346-3-3-3s-3 1.346-3 3v1h2v-1c0-.552.449-1 1-1s1 .448 1 1v1z"/><path d="m37 30c-1.654 0-3 1.346-3 3v1h2v-1c0-.552.449-1 1-1s1 .448 1 1v1h2v-1c0-1.654-1.346-3-3-3z"/><path d="m32.764 40h-3.764v2h3.764c1.76 0 3.343-.979 4.13-2.553l-1.789-.895c-.446.893-1.343 1.448-2.341 1.448z"/><path d="m8 55h2v2h-2z"/><path d="m12 55h2v2h-2z"/><path d="m16 55h2v2h-2z"/><path d="m50 28h2v2h-2z"/><path d="m54 28h6v2h-6z"/><path d="m50 32h10v2h-10z"/><path d="m50 36h2v2h-2z"/><path d="m54 36h2v2h-2z"/><path d="m59.586 15h-4.586c-.551 0-1-.449-1-1v-6c0-.551.449-1 1-1h4.586c1.331 0 2.414-1.083 2.414-2.414 0-.645-.251-1.251-.707-1.707-1.856-1.857-4.325-2.879-6.95-2.879h-2.871c-2.928 0-5.581 1.518-7.064 4h-37.408c-2.757 0-5 2.243-5 5v4c0 2.757 2.243 5 5 5h10.659c-1.083 2.007-1.659 4.253-1.659 6.539 0 .985.115 1.954.32 2.906-1.077-.285-2.185-.445-3.32-.445-7.168 0-13 5.832-13 13s5.832 13 13 13c5.072 0 9.627-2.948 11.753-7.458 1.364 1.038 2.95 1.796 4.681 2.175-.882.951-1.434 2.213-1.434 3.609v10.674h10.674.326 3 1 10.438c1.379 0 2.576-.935 2.911-2.272l3.568-14.273c.055-.223.083-.448.083-.674 0-1.533-1.248-2.781-2.781-2.781h-.876c-1.234 0-2.334.829-2.674 2.018l-3.423 11.982h-.347c-.465-2.279-2.484-4-4.899-4h-5.382l-1.528-3.056c-.372-.744-.904-1.365-1.536-1.848 3.768-1.552 6.568-4.97 7.265-9.096h.181c2.206 0 4-1.794 4-4 0-1.25-.588-2.353-1.488-3.087l.502-1.257c.654-1.634.986-3.356.986-5.117 0-1.206-.162-2.401-.471-3.556 1.186.646 2.528 1.017 3.943 1.017h3.531c2.2 0 4.268-.857 5.824-2.413l.466-.466c.456-.456.707-1.062.707-1.707 0-1.331-1.083-2.414-2.414-2.414zm-55.586-2v-4c0-1.654 1.346-3 3-3h37v8.882l-1.701.851-3.191-4.255-3.025 3.025-4.083-5.104-4.083 5.104-3.025-3.025-3.191 4.255-2.082-1.041-.785 1.308h-11.834c-1.654 0-3-1.346-3-3zm9 36.764-1.316-2.633c-.343-.686-.617-1.402-.857-2.131h4.346c-.24.728-.514 1.445-.857 2.131zm-2.688-6.764c-.19-.99-.312-1.993-.312-3s.122-2.01.312-3h5.376c.19.99.312 1.993.312 3s-.122 2.01-.312 3zm-8.312-3c0-1.041.155-2.045.426-3h5.831c-.168.991-.257 1.996-.257 3s.089 2.009.258 3h-5.832c-.271-.955-.426-1.959-.426-3zm11-9.764 1.316 2.633c.343.686.617 1.402.857 2.131h-4.346c.24-.728.514-1.445.857-2.131zm4.791 7.094c.634.422 1.392.67 2.209.67h.181c.311 1.844 1.041 3.543 2.092 5h-4.531c.169-.991.258-1.996.258-3 0-.893-.075-1.786-.209-2.67zm2.209-1.33c-1.103 0-2-.897-2-2s.897-2 2-2zm-3.681-3.564c-.071-.154-.138-.31-.214-.461l-1.416-2.832c.803.124 1.586.334 2.344.634l.454 1.136c-.5.408-.911.921-1.168 1.523zm-5.009-3.292-1.415 2.831c-.485.969-.877 1.984-1.178 3.025h-5.503c1.578-3.076 4.559-5.307 8.096-5.856zm-8.096 15.856h5.502c.302 1.041.694 2.056 1.178 3.025l1.415 2.831c-3.536-.549-6.517-2.78-8.095-5.856zm11.47 5.869 1.422-2.844c.484-.969.876-1.984 1.178-3.025h5.512c-1.605 3.143-4.628 5.331-8.112 5.869zm15.316 9.131v-2.477c.685.955 1.521 1.792 2.477 2.477zm25.592-15.433c.096-.334.405-.567.751-.567h.876c.431 0 .781.351.781.781 0 .063-.008.127-.023.189l-2.758 11.03h-2.894zm-.873 13.433-.311 1.242c-.111.446-.51.758-.97.758h-10.438-1v-2zm-6.903-2h-3.816v-2h1c1.302 0 2.402.839 2.816 2zm-9.934-3-.776 1.553 1.789.895.723-1.448h2.382v2c-1.103 0-2 .897-2 2v2h-1-.326c-4.783 0-8.674-3.891-8.674-8.674 0-1.834 1.492-3.326 3.326-3.326 1.268 0 2.408.705 2.975 1.839zm-5.882-7c-5.514 0-10-4.486-10-10v-6.921c0-.829.521-1.582 1.298-1.873l4.599-1.725c2.753 1.631 5.892 2.519 9.174 2.519h4.929v8c0 5.514-4.486 10-10 10zm12-10v-4c1.103 0 2 .897 2 2s-.897 2-2 2zm0-6v-2-1c0-2.792-1.988-5.217-4.727-5.765l-1.078-.215-.392 1.961 1.077.215c1.47.294 2.612 1.407 2.987 2.804h-4.797c-4.293 0-8.329-1.672-11.364-4.707l-1.414 1.414c.503.503 1.036.961 1.585 1.396l-3.282 1.231c-1.552.582-2.595 2.087-2.595 3.745v.921c-.238 0-.468.03-.695.07l-.463-1.157c-.558-1.397-.842-2.869-.842-4.374 0-2.134.581-4.229 1.678-6.059l.703-1.171 1.918.959 2.809-3.745 2.975 2.975 3.917-4.897 3.917 4.896 2.975-2.975 2.809 3.745 1.918-.959.703 1.171c1.097 1.831 1.678 3.926 1.678 6.06 0 1.505-.284 2.977-.843 4.375l-.463 1.157c-.226-.041-.456-.071-.694-.071zm15.879-12.293-.466.466c-1.179 1.178-2.745 1.827-4.41 1.827h-3.531c-2.301 0-4.377-1.237-5.472-3.245v-11.51c1.095-2.008 3.171-3.245 5.472-3.245h2.871c2.091 0 4.057.814 5.536 2.293.077.077.121.184.121.293 0 .228-.186.414-.414.414h-4.586c-1.654 0-3 1.346-3 3v6c0 1.654 1.346 3 3 3h4.586c.228 0 .414.186.414.414 0 .109-.044.216-.121.293z"/></g></g></svg>